<?xml version="1.0" encoding="UTF-8" standalone="no"?>
<!-- Created with Inkscape (http://www.inkscape.org/) -->

<svg
   width="512"
   height="512"
   viewBox="0 0 135.46666 135.46667"
   version="1.1"
   id="svg5"
   inkscape:version="1.2.2 (b0a8486541, 2022-12-01)"
   sodipodi:docname="icon.svg"
   xmlns:inkscape="http://www.inkscape.org/namespaces/inkscape"
   xmlns:sodipodi="http://sodipodi.sourceforge.net/DTD/sodipodi-0.dtd"
   xmlns="http://www.w3.org/2000/svg"
   xmlns:svg="http://www.w3.org/2000/svg">
  <sodipodi:namedview
     id="namedview7"
     pagecolor="#ffffff"
     bordercolor="#666666"
     borderopacity="1.0"
     inkscape:showpageshadow="2"
     inkscape:pageopacity="0.0"
     inkscape:pagecheckerboard="0"
     inkscape:deskcolor="#d1d1d1"
     inkscape:document-units="mm"
     showgrid="false"
     inkscape:zoom="1.1893044"
     inkscape:cx="212.72939"
     inkscape:cy="117.71587"
     inkscape:current-layer="layer1" />
  <defs
     id="defs2" />
  <g
     inkscape:label="Layer 1"
     inkscape:groupmode="layer"
     id="layer1">
    <rect
       style="fill:#384a77;stroke-width:0.265112;stroke-linecap:round;stroke-linejoin:round;fill-opacity:1"
       id="rect234"
       width="144.0862"
       height="139.15628"
       x="-2.1267483"
       y="-1.7920171" />
    <g
       aria-label="DEBUG"
       id="text5472-3"
       style="font-weight:bold;font-size:43.6609px;line-height:90%;font-family:'Noto Sans CJK JP';-inkscape-font-specification:'Noto Sans CJK JP Bold';letter-spacing:-4.20297px;fill:#ffffef;stroke-width:0.265112;stroke-linecap:round;stroke-linejoin:round">
      <path
         d="m 3.749513,48.864483 h 9.21245 c 9.518076,0 15.630602,-5.413952 15.630602,-16.285516 0,-10.915225 -6.112526,-16.067211 -15.979889,-16.067211 H 3.749513 Z m 6.461813,-5.195647 V 21.707403 h 2.008402 c 6.025204,0 9.780041,2.968941 9.780041,10.871564 0,7.858962 -3.754837,11.089869 -9.780041,11.089869 z"
         id="path5996" />
      <path
         d="M 30.720456,48.864483 H 51.022775 V 43.450531 H 37.18227 V 34.805673 H 48.534104 V 29.391721 H 37.18227 V 21.925708 H 50.542505 V 16.511756 H 30.720456 Z"
         id="path5998" />
      <path
         d="M 53.368932,48.864483 H 64.89541 c 7.116726,0 12.530678,-3.012602 12.530678,-9.518076 0,-4.36609 -2.575993,-6.811101 -6.068865,-7.640658 v -0.218304 c 2.750637,-0.96054 4.409751,-4.016803 4.409751,-6.985744 0,-6.025205 -5.064665,-7.989945 -11.701121,-7.989945 H 53.368932 Z m 6.461813,-19.167135 v -8.208249 h 3.84216 c 3.88582,0 5.806899,1.135183 5.806899,3.973141 0,2.575994 -1.790097,4.235108 -5.894221,4.235108 z m 0,14.189792 v -9.430754 h 4.497073 c 4.453412,0 6.8111,1.353488 6.8111,4.497073 0,3.361889 -2.401349,4.933681 -6.8111,4.933681 z"
         id="path6000" />
      <path
         d="m 91.298722,49.475735 c 7.902623,0 12.487018,-4.40975 12.487018,-15.150332 V 16.511756 h -6.199849 v 18.381239 c 0,6.723778 -2.44501,8.994145 -6.287169,8.994145 -3.754838,0 -6.112526,-2.270367 -6.112526,-8.994145 V 16.511756 h -6.461813 v 17.813647 c 0,10.740582 4.715377,15.150332 12.574339,15.150332 z"
         id="path6002" />
      <path
         d="m 121.23854,49.475735 c 4.49707,0 8.29557,-1.746436 10.47861,-3.88582 v -14.58274 h -11.48281 v 5.282969 h 5.71957 v 6.374491 c -0.91687,0.785896 -2.48867,1.222505 -4.0168,1.222505 -6.37449,0 -9.6054,-4.235107 -9.6054,-11.264512 0,-6.942083 3.75484,-11.133529 9.12513,-11.133529 2.92528,0 4.75904,1.178844 6.37449,2.706975 l 3.40555,-4.104124 c -2.09572,-2.139384 -5.32663,-4.147786 -9.99834,-4.147786 -8.6012,0 -15.49962,6.243509 -15.49962,16.896769 0,10.784242 6.72378,16.634802 15.49962,16.634802 z"
         id="path6004" />
    </g>
    <g
       aria-label="DEBUG"
       id="text5472-3-3"
       style="font-weight:bold;font-size:43.6609px;line-height:90%;font-family:'Noto Sans CJK JP';-inkscape-font-specification:'Noto Sans CJK JP Bold';letter-spacing:-4.20297px;opacity:0.8;fill:#ffffef;stroke-width:0.265112;stroke-linecap:round;stroke-linejoin:round">
      <path
         d="m 3.749513,84.247299 h 9.21245 c 9.518076,0 15.630602,-5.413951 15.630602,-16.285516 0,-10.915225 -6.112526,-16.067211 -15.979889,-16.067211 H 3.749513 Z m 6.461813,-5.195647 V 57.090219 h 2.008402 c 6.025204,0 9.780041,2.968942 9.780041,10.871564 0,7.858962 -3.754837,11.089869 -9.780041,11.089869 z"
         id="path6007" />
      <path
         d="M 30.720456,84.247299 H 51.022775 V 78.833348 H 37.18227 V 70.188489 H 48.534104 V 64.774538 H 37.18227 V 57.308524 H 50.542505 V 51.894572 H 30.720456 Z"
         id="path6009" />
      <path
         d="M 53.368932,84.247299 H 64.89541 c 7.116726,0 12.530678,-3.012602 12.530678,-9.518076 0,-4.36609 -2.575993,-6.8111 -6.068865,-7.640658 v -0.218304 c 2.750637,-0.96054 4.409751,-4.016803 4.409751,-6.985744 0,-6.025204 -5.064665,-7.989945 -11.701121,-7.989945 H 53.368932 Z m 6.461813,-19.167135 v -8.208249 h 3.84216 c 3.88582,0 5.806899,1.135183 5.806899,3.973142 0,2.575993 -1.790097,4.235107 -5.894221,4.235107 z m 0,14.189793 v -9.430755 h 4.497073 c 4.453412,0 6.8111,1.353488 6.8111,4.497073 0,3.361889 -2.401349,4.933682 -6.8111,4.933682 z"
         id="path6011" />
      <path
         d="m 91.298722,84.858552 c 7.902623,0 12.487018,-4.409751 12.487018,-15.150333 V 51.894572 h -6.199849 v 18.381239 c 0,6.723779 -2.44501,8.994146 -6.287169,8.994146 -3.754838,0 -6.112526,-2.270367 -6.112526,-8.994146 V 51.894572 h -6.461813 v 17.813647 c 0,10.740582 4.715377,15.150333 12.574339,15.150333 z"
         id="path6013" />
      <path
         d="m 121.23854,84.858552 c 4.49707,0 8.29557,-1.746436 10.47861,-3.88582 V 66.389991 h -11.48281 v 5.282969 h 5.71957 v 6.374491 c -0.91687,0.785897 -2.48867,1.222506 -4.0168,1.222506 -6.37449,0 -9.6054,-4.235108 -9.6054,-11.264513 0,-6.942083 3.75484,-11.133529 9.12513,-11.133529 2.92528,0 4.75904,1.178844 6.37449,2.706976 l 3.40555,-4.104125 c -2.09572,-2.139384 -5.32663,-4.147785 -9.99834,-4.147785 -8.6012,0 -15.49962,6.243508 -15.49962,16.896768 0,10.784242 6.72378,16.634803 15.49962,16.634803 z"
         id="path6015" />
    </g>
    <g
       aria-label="DEBUG"
       id="text5472-3-3-6"
       style="font-weight:bold;font-size:43.6609px;line-height:90%;font-family:'Noto Sans CJK JP';-inkscape-font-specification:'Noto Sans CJK JP Bold';letter-spacing:-4.20297px;opacity:0.6;fill:#ffffef;stroke-width:0.265112;stroke-linecap:round;stroke-linejoin:round">
      <path
         d="m 3.749513,118.91125 h 9.21245 c 9.518076,0 15.630602,-5.41395 15.630602,-16.28552 0,-10.915224 -6.112526,-16.06721 -15.979889,-16.06721 H 3.749513 Z m 6.461813,-5.19565 V 91.754167 h 2.008402 c 6.025204,0 9.780041,2.968942 9.780041,10.871563 0,7.85896 -3.754837,11.08987 -9.780041,11.08987 z"
         id="path6018" />
      <path
         d="M 30.720456,118.91125 H 51.022775 V 113.4973 H 37.18227 v -8.64486 H 48.534104 V 99.438486 H 37.18227 V 91.972472 H 50.542505 V 86.55852 H 30.720456 Z"
         id="path6020" />
      <path
         d="M 53.368932,118.91125 H 64.89541 c 7.116726,0 12.530678,-3.0126 12.530678,-9.51808 0,-4.36609 -2.575993,-6.8111 -6.068865,-7.64066 v -0.2183 c 2.750637,-0.96054 4.409751,-4.016804 4.409751,-6.985745 0,-6.025204 -5.064665,-7.989945 -11.701121,-7.989945 H 53.368932 Z m 6.461813,-19.167138 v -8.208249 h 3.84216 c 3.88582,0 5.806899,1.135183 5.806899,3.973142 0,2.575993 -1.790097,4.235107 -5.894221,4.235107 z m 0,14.189788 v -9.43075 h 4.497073 c 4.453412,0 6.8111,1.35349 6.8111,4.49707 0,3.36189 -2.401349,4.93368 -6.8111,4.93368 z"
         id="path6022" />
      <path
         d="m 91.298722,119.5225 c 7.902623,0 12.487018,-4.40975 12.487018,-15.15033 V 86.55852 h -6.199849 v 18.38124 c 0,6.72378 -2.44501,8.99414 -6.287169,8.99414 -3.754838,0 -6.112526,-2.27036 -6.112526,-8.99414 V 86.55852 h -6.461813 v 17.81365 c 0,10.74058 4.715377,15.15033 12.574339,15.15033 z"
         id="path6024" />
      <path
         d="m 121.23854,119.5225 c 4.49707,0 8.29557,-1.74644 10.47861,-3.88582 v -14.58274 h -11.48281 v 5.28297 h 5.71957 v 6.37449 c -0.91687,0.7859 -2.48867,1.2225 -4.0168,1.2225 -6.37449,0 -9.6054,-4.2351 -9.6054,-11.26451 0,-6.942081 3.75484,-11.133527 9.12513,-11.133527 2.92528,0 4.75904,1.178844 6.37449,2.706976 l 3.40555,-4.104125 c -2.09572,-2.139384 -5.32663,-4.147785 -9.99834,-4.147785 -8.6012,0 -15.49962,6.243508 -15.49962,16.896771 0,10.78424 6.72378,16.6348 15.49962,16.6348 z"
         id="path6026" />
    </g>
  </g>
</svg>
